<svg width="12" height="12" viewBox="0 0 12 12" fill="none" xmlns="http://www.w3.org/2000/svg">
<path fill-rule="evenodd" clip-rule="evenodd" d="M11.5385 5.53846H6.46154V0.461538C6.46154 0.206769 6.25477 0 6 0C5.74523 0 5.53846 0.206769 5.53846 0.461538V5.53846H0.461538C0.206769 5.53846 0 5.74523 0 6C0 6.25477 0.206769 6.46154 0.461538 6.46154H5.53846V11.5385C5.53846 11.7932 5.74523 12 6 12C6.25477 12 6.46154 11.7932 6.46154 11.5385V6.46154H11.5385C11.7932 6.46154 12 6.25477 12 6C12 5.74523 11.7932 5.53846 11.5385 5.53846Z" fill="#454545"/>
</svg>
