<svg width="35" height="29" viewBox="0 0 35 29" fill="none" xmlns="http://www.w3.org/2000/svg">
<path d="M34.3966 0.620667H0.603448C0.270345 0.620667 0 0.890408 0 1.22411V27.7758C0 28.1095 0.270345 28.3793 0.603448 28.3793H34.3966C34.7297 28.3793 35 28.1095 35 27.7758V1.22411C35 0.890408 34.7297 0.620667 34.3966 0.620667ZM33.7931 27.1724H1.2069V1.82756H33.7931V27.1724Z" fill="#6A6A6A"/>
<path d="M9.65516 13.9798C11.5083 13.9798 13.0158 12.4724 13.0158 10.6198C13.0158 8.76602 11.5083 7.25861 9.65516 7.25861C7.80197 7.25861 6.29456 8.76602 6.29456 10.6192C6.29456 12.4724 7.80197 13.9798 9.65516 13.9798ZM9.65516 8.4655C10.8427 8.4655 11.8089 9.43223 11.8089 10.6192C11.8089 11.8062 10.8427 12.7729 9.65516 12.7729C8.46757 12.7729 7.50145 11.8068 7.50145 10.6198C7.50145 9.43283 8.46757 8.4655 9.65516 8.4655Z" fill="#6A6A6A"/>
<path d="M4.22413 24.7586C4.36534 24.7586 4.50775 24.7091 4.6224 24.6083L14.4665 15.9416L20.6832 22.1577C20.9191 22.3937 21.3005 22.3937 21.5365 22.1577C21.7724 21.9218 21.7724 21.5404 21.5365 21.3044L18.6357 18.4037L24.1759 12.3366L30.9714 18.566C31.217 18.7911 31.599 18.7742 31.824 18.5286C32.0491 18.283 32.0328 17.901 31.7866 17.6759L24.5453 11.038C24.427 10.93 24.2695 10.8763 24.1108 10.8799C23.9509 10.8871 23.8 10.9577 23.692 11.076L17.7818 17.5492L14.9196 14.687C14.694 14.4619 14.3331 14.4505 14.0941 14.6605L3.82525 23.7019C3.57482 23.9222 3.55068 24.3036 3.77094 24.554C3.89042 24.6898 4.05697 24.7586 4.22413 24.7586Z" fill="#6A6A6A"/>
</svg>
