<svg width="72" height="72" viewBox="0 0 72 72" fill="none" xmlns="http://www.w3.org/2000/svg">
<path d="M36.0034 0C55.7726 0 71.8629 15.9566 72 35.7566V36.0034C71.9966 55.7794 56.04 71.8663 36.2331 72H35.9931C16.2343 72 0.157714 56.0674 0.00342857 36.2846H0V35.9966C0 16.2206 15.9566 0.137143 35.7531 0H36.0034ZM36.0051 3.42857H35.7789C17.8655 3.54514 3.42857 18.1063 3.42857 35.9966L3.432 36.1783V36.2194C3.54856 54.1303 18.1089 68.5749 35.9949 68.5714H36.2211C54.1311 68.4514 68.5714 53.8937 68.5714 36.0034V35.7806C68.448 17.8663 53.8842 3.42514 36.0051 3.42857ZM48.353 27.9402C49.0558 27.258 50.1985 27.258 50.9014 27.9402C51.6043 28.6223 51.6043 29.7313 50.9014 30.4134L33.3038 47.4884C32.6009 48.1705 31.4582 48.1705 30.7553 47.4884L21.0986 38.1166C20.3957 37.4344 20.3957 36.3255 21.0986 35.6433C21.8051 34.9612 22.9442 34.9612 23.647 35.6433L32.0313 43.7767L48.353 27.9402Z" fill="#8BC7B1"/>
</svg>
