<svg width="63" height="43" viewBox="0 0 63 43" fill="none" xmlns="http://www.w3.org/2000/svg">
<path fill-rule="evenodd" clip-rule="evenodd" d="M2.50455 38.8481C2.50455 39.5676 3.09069 40.1543 3.81247 40.1543H58.7991C59.5197 40.1543 60.1053 39.5687 60.1053 38.8481V8.53065L32.0153 27.9503L31.3031 26.9202L30.5995 27.9561L2.50455 8.87113V38.8481ZM0.000295885 3.76453C9.88226e-05 3.78049 0 3.79647 0 3.81247V6.50658V7.16978L2.09808e-05 7.1698V38.8481C2.09808e-05 40.9531 1.7097 42.6588 3.81247 42.6588H58.7991C60.903 42.6588 62.6098 40.952 62.6098 38.8481V6.79917L62.6115 6.79799V6.14134V3.81247C62.6115 3.03504 62.3783 2.31218 61.9783 1.70959C61.296 0.679557 60.1266 3.05176e-05 58.7991 3.05176e-05H3.81247C1.72511 3.05176e-05 0.0250989 1.68084 0.000295885 3.76453ZM2.50455 5.84339L31.2969 25.4021L60.1053 5.48587V3.81074C60.1053 3.55649 60.0324 3.31907 59.9064 3.11824C59.6747 2.75114 59.2649 2.50629 58.7973 2.50629H3.81245C3.09633 2.50629 2.51374 3.08374 2.50464 3.79556C2.50457 3.80119 2.50453 3.80683 2.50453 3.81247V5.84338L2.50455 5.84339Z" fill="#8BC7B1"/>
</svg>
