<svg width="10" height="10" viewBox="0 0 10 10" fill="none" xmlns="http://www.w3.org/2000/svg">
<path d="M4.68855 2.96487L3.71983 3.93359C3.36293 4.29049 3.004 4.64739 2.64914 5.00837C2.56552 5.09402 2.5023 5.20823 2.47783 5.32039C2.34934 5.90979 2.22494 6.49918 2.10054 7.08857L2.0312 7.41487C1.99857 7.57395 2.04139 7.73302 2.14948 7.84111C2.2331 7.92473 2.34934 7.97163 2.47171 7.97163C2.50638 7.97163 2.54105 7.96755 2.57572 7.96143L2.93466 7.88598C3.50569 7.76565 4.07877 7.64329 4.6498 7.525C4.78237 7.49645 4.89453 7.43731 4.99039 7.34145C6.59336 5.73644 8.19634 4.13346 9.79932 2.53252C9.91761 2.41423 9.98287 2.27351 9.99919 2.10016C10.0012 2.07161 9.99919 2.04306 9.99307 2.01655C9.98287 1.97576 9.97471 1.93293 9.96452 1.89214C9.94208 1.78813 9.91761 1.66985 9.86866 1.55564C9.56887 0.870396 9.07125 0.380937 8.39009 0.105616C8.25345 0.0505517 8.10865 0.032197 7.98221 0.0158817L7.94754 0.0118029C7.76399 -0.0106307 7.59676 0.0505517 7.45196 0.197389C6.53422 1.1192 5.61037 2.04306 4.68855 2.96487ZM7.88024 0.503301C7.88431 0.503301 7.88635 0.503301 7.89043 0.503301L7.9251 0.50738C8.03115 0.519617 8.12904 0.531853 8.20654 0.564484C8.76126 0.788819 9.16915 1.18854 9.41591 1.75142C9.44447 1.81668 9.46282 1.9003 9.48118 1.98799C9.48729 2.02062 9.49545 2.05326 9.50157 2.08589C9.49341 2.1226 9.47914 2.14707 9.45058 2.17358C7.84557 3.77452 6.24259 5.37954 4.63961 6.98252C4.61309 7.00903 4.58862 7.02127 4.55191 7.02942C3.97884 7.14975 3.4078 7.27007 2.83473 7.3904L2.53289 7.45362L2.59 7.18646C2.7144 6.59911 2.8388 6.00972 2.96525 5.42237C2.96933 5.40401 2.98564 5.37546 3.004 5.35507C3.35885 4.99613 3.71371 4.63923 4.07061 4.28437L5.03933 3.31565C5.96319 2.3918 6.88704 1.46794 7.80886 0.54205C7.8476 0.50942 7.86596 0.503301 7.88024 0.503301Z" fill="#4F4F4F"/>
<path d="M0.793332 2.2307H4.35415C4.49283 2.2307 4.605 2.11853 4.605 1.97985C4.605 1.84117 4.49283 1.729 4.35415 1.729H0.793332C0.354858 1.729 0 2.0859 0 2.52234V9.19938C0 9.63785 0.356897 9.99271 0.793332 9.99271H7.46833C7.90681 9.99271 8.26167 9.63581 8.26167 9.19938V5.78336C8.26167 5.64468 8.1495 5.53251 8.01082 5.53251C7.87214 5.53251 7.75997 5.64468 7.75997 5.78336V9.19938C7.75997 9.36049 7.62741 9.49305 7.46629 9.49305H0.793332C0.632218 9.49305 0.499656 9.36049 0.499656 9.19938V2.52438C0.499656 2.36326 0.632218 2.2307 0.793332 2.2307Z" fill="#4F4F4F"/>
</svg>
