<svg width="51" height="52" viewBox="0 0 51 52" fill="none" xmlns="http://www.w3.org/2000/svg">
<path fill-rule="evenodd" clip-rule="evenodd" d="M40 15C40 22.732 33.732 29 26 29C18.268 29 12 22.732 12 15C12 7.26801 18.268 1 26 1C33.732 1 40 7.26801 40 15ZM41 15C41 23.2843 34.2843 30 26 30C17.7157 30 11 23.2843 11 15C11 6.71573 17.7157 0 26 0C34.2843 0 41 6.71573 41 15ZM50 42C50 43.0096 49.4823 44.078 48.3162 45.1591C47.1489 46.2414 45.405 47.2621 43.1661 48.1401C38.6946 49.8936 32.449 51 25.5 51C18.551 51 12.3054 49.8936 7.83386 48.1401C5.59503 47.2621 3.85113 46.2414 2.68381 45.1591C1.51774 44.078 1 43.0096 1 42C1 40.9904 1.51774 39.922 2.68381 38.8409C3.85113 37.7586 5.59503 36.7379 7.83386 35.8599C12.3054 34.1064 18.551 33 25.5 33C32.449 33 38.6946 34.1064 43.1661 35.8599C45.405 36.7379 47.1489 37.7586 48.3162 38.8409C49.4823 39.922 50 40.9904 50 42ZM51 42C51 47.5228 39.5833 52 25.5 52C11.4167 52 0 47.5228 0 42C0 36.4772 11.4167 32 25.5 32C39.5833 32 51 36.4772 51 42Z" fill="#8BC7B1"/>
</svg>
